<svg width="91" height="55" viewBox="0 0 91 55" fill="none" xmlns="http://www.w3.org/2000/svg">
<path d="M89.103 7.99146C89.7217 7.32617 90.8354 7.76459 90.8354 8.6731V16.4124C90.8354 16.6285 90.7658 16.839 90.6362 17.012L71.2007 42.9524C70.7067 43.6117 71.1767 44.5519 72.0005 44.552H86.6743C86.9623 44.552 87.2364 44.4276 87.4263 44.2112L88.9976 42.4182C89.6059 41.7241 90.7495 42.1544 90.7495 43.0774V53.1946C90.7494 53.7468 90.3017 54.1946 89.7495 54.1946H37.5083C37.0675 54.1946 36.6788 53.9056 36.5513 53.4836L34.4331 46.468C34.3057 46.0459 33.917 45.7572 33.4761 45.7571H20.4272C19.9863 45.7571 19.5976 46.0459 19.4702 46.468L17.3521 53.4836C17.2245 53.9056 16.8358 54.1945 16.395 54.1946H1.00146C-0.0452596 54.1945 -0.388358 52.7895 0.540527 52.3069L5.37744 49.7942C5.6088 49.6739 5.78399 49.4676 5.86572 49.22L18.5464 10.803C18.6816 10.3932 19.0651 10.1165 19.4966 10.1165H34.4067C34.8382 10.1165 35.2207 10.3932 35.356 10.803L43.4897 35.4426C43.846 36.5211 45.4388 36.265 45.439 35.1292V11.1165C45.439 10.5643 45.8868 10.1166 46.439 10.1165H86.6919C86.9697 10.1165 87.2351 10.0006 87.4243 9.79712L89.103 7.99146ZM58.4058 19.7581C57.8536 19.7582 57.4058 20.2059 57.4058 20.7581V41.0364C57.4058 41.9976 58.6302 42.4053 59.2065 41.636L74.3999 21.3577C74.8938 20.6985 74.4237 19.7584 73.6001 19.7581H58.4058ZM26.9517 22.2551C26.8493 22.2551 26.7586 22.3222 26.729 22.4202L22.7769 35.5149C22.5831 36.1568 23.0634 36.8039 23.7339 36.804H30.1694C30.8397 36.8037 31.3201 36.1567 31.1265 35.5149L27.1733 22.4202C27.1438 22.3223 27.0539 22.2552 26.9517 22.2551ZM26.4399 2.8479C26.6673 2.84795 26.8501 3.03552 26.8501 3.26294V7.06567C26.85 7.29143 26.6657 7.47402 26.4399 7.47192C23.1918 7.47195 20.2898 8.04243 18.231 8.93286C17.2004 9.3786 16.4185 9.88911 15.9058 10.4133C15.4604 10.8688 15.2469 11.3024 15.2007 11.7024L15.1909 11.8713C15.191 12.3173 15.3969 12.8089 15.9058 13.3293C16.0354 13.4619 16.1831 13.5933 16.3472 13.7229C16.5203 13.8599 16.598 14.0884 16.5288 14.2981L15.3745 17.7952C15.2769 18.091 14.9351 18.2269 14.6675 18.0676C12.1011 16.5399 10.3316 14.3995 10.3315 11.8713C10.3316 9.15838 12.3683 6.8898 15.2417 5.3479C18.1494 3.78777 22.1103 2.84793 26.4399 2.8479ZM40.3501 0.111572C40.4431 -0.0766213 40.7261 -0.0125506 40.729 0.19751L40.8423 8.49146C40.8429 8.54069 40.8248 8.58813 40.7925 8.62524L37.1831 12.759C37.0812 12.8756 36.8908 12.8368 36.8423 12.6897L36.0942 10.4221C35.8723 9.75036 35.245 9.29555 34.5376 9.29517H30.7144C30.4938 9.29517 30.4352 8.9907 30.6401 8.90942L37.2505 6.29224C37.2967 6.27395 37.335 6.23914 37.3569 6.19458L40.3501 0.111572Z" fill="#04010B"/>
</svg>
