<svg width="91" height="55" viewBox="0 0 91 55" fill="none" xmlns="http://www.w3.org/2000/svg">
<path d="M89.2676 7.99207C89.8863 7.32679 91 7.76425 91 8.67273V16.412C91 16.6282 90.9294 16.8386 90.7998 17.0116L71.3643 42.952C70.8703 43.6113 71.3412 44.5516 72.165 44.5516H86.8389C87.1268 44.5515 87.401 44.4274 87.5908 44.2108L89.1621 42.4178C89.7705 41.7242 90.9139 42.1543 90.9141 43.077V53.1942C90.9141 53.7464 90.4663 54.1941 89.9141 54.1942H37.6719C37.231 54.1941 36.8422 53.9053 36.7148 53.4833L34.5977 46.4677C34.4702 46.0456 34.0806 45.7567 33.6396 45.7567H20.5908C20.1501 45.7569 19.7613 46.0457 19.6338 46.4677L17.5166 53.4833C17.3892 53.9054 16.9996 54.1942 16.5586 54.1942H1.16602C0.119188 54.1942 -0.223846 52.7901 0.705078 52.3075L5.54102 49.7938C5.77233 49.6736 5.94747 49.4681 6.0293 49.2206L18.7109 10.8026C18.8463 10.3931 19.2288 10.1161 19.6602 10.1161H34.5703C35.0018 10.1161 35.3852 10.3929 35.5205 10.8026L43.6533 35.4423C44.0094 36.5211 45.6035 36.2649 45.6035 35.1288V11.1161C45.6036 10.5639 46.0513 10.1161 46.6035 10.1161H86.8564C87.1341 10.116 87.3997 10.0011 87.5889 9.79773L89.2676 7.99207ZM58.5703 19.7577C58.0181 19.7577 57.5704 20.2055 57.5703 20.7577V41.037C57.5706 41.9979 58.7937 42.4054 59.3701 41.6366L74.5645 21.3573C75.058 20.698 74.5873 19.7577 73.7637 19.7577H58.5703ZM27.1152 22.2548C27.0131 22.2549 26.9232 22.322 26.8936 22.4198L22.9404 35.5145C22.7467 36.1565 23.2279 36.8036 23.8984 36.8036H30.333C31.0036 36.8036 31.4838 36.1565 31.29 35.5145L27.3379 22.4198C27.3083 22.3219 27.2175 22.2548 27.1152 22.2548ZM26.6035 2.84753C26.8309 2.84753 27.0135 3.03525 27.0137 3.26257V7.06531C27.0137 7.29121 26.8294 7.47371 26.6035 7.47156C23.3555 7.47163 20.4533 8.0421 18.3945 8.9325C17.3641 9.37821 16.582 9.88878 16.0693 10.413C15.624 10.8684 15.4105 11.302 15.3643 11.702L15.3545 11.871C15.3545 12.3168 15.5606 12.8086 16.0693 13.329C16.1987 13.4613 16.3461 13.5923 16.5098 13.7216C16.6831 13.8584 16.7615 14.087 16.6924 14.2968L15.5371 17.7958C15.4394 18.0915 15.0977 18.2276 14.8301 18.0682C12.2641 16.5405 10.4951 14.3989 10.4951 11.871C10.4953 9.15818 12.532 6.88939 15.4053 5.34753C18.3129 3.78745 22.2741 2.84762 26.6035 2.84753ZM40.5146 0.112183C40.6075 -0.0764311 40.8906 -0.0129783 40.8936 0.197144L41.0068 8.49207C41.0075 8.54138 40.9895 8.58969 40.957 8.62683L37.3477 12.7587C37.2458 12.8752 37.0556 12.8371 37.0068 12.6903L36.2588 10.4218C36.0368 9.75 35.4086 9.29511 34.7012 9.2948H30.8779C30.6576 9.29446 30.5997 8.99021 30.8047 8.90906L37.415 6.29285C37.4612 6.27459 37.4995 6.23968 37.5215 6.19519L40.5146 0.112183Z" fill="#ECF2F4"/>
</svg>
