<svg id="Grupo_14" data-name="Grupo 14" xmlns="http://www.w3.org/2000/svg" xmlns:xlink="http://www.w3.org/1999/xlink" width="124.29" height="40" viewBox="0 0 124.29 40">
  <defs>
    <clipPath id="clip-path">
      <rect id="Retângulo_114921" data-name="Retângulo 114921" width="124.29" height="40" fill="none"/>
    </clipPath>
  </defs>
  <g id="Grupo_13" data-name="Grupo 13" transform="translate(0 0)" clip-path="url(#clip-path)">
    <path id="Caminho_4704747" data-name="Caminho 4704747" d="M73.336,49.4h1.428A4.958,4.958,0,0,1,73.2,52.778a5.109,5.109,0,0,1-3.562,1.235,4.871,4.871,0,0,1-3.95-1.732,7.148,7.148,0,0,1-1.443-4.719A7.38,7.38,0,0,1,65.709,42.7a5.493,5.493,0,0,1,7.436-.591,4.242,4.242,0,0,1,1.445,3.1H73.221a3.308,3.308,0,0,0-1.132-2.178,3.782,3.782,0,0,0-5.291.585,6.1,6.1,0,0,0-1.083,3.817,6.3,6.3,0,0,0,1.1,3.91,3.506,3.506,0,0,0,2.941,1.44,3.376,3.376,0,0,0,2.4-.9A4.041,4.041,0,0,0,73.336,49.4" transform="translate(-38.247 -24.371)" fill="#fff"/>
    <path id="Caminho_4704748" data-name="Caminho 4704748" d="M96.44,29.854h1.415V32.02H96.44Zm0,4.8h1.415V47.1H96.44Z" transform="translate(-57.416 -17.774)" fill="#fff"/>
    <path id="Caminho_4704749" data-name="Caminho 4704749" d="M108.167,53.7V41.254h1.381v1.99a4.791,4.791,0,0,1,1.717-1.727,4.718,4.718,0,0,1,2.366-.578,5.163,5.163,0,0,1,2.241.456,3.353,3.353,0,0,1,1.474,1.3,3.124,3.124,0,0,1,.383,1.048,12.416,12.416,0,0,1,.115,2.02V53.7h-1.473V45.983a4.753,4.753,0,0,0-.668-2.968,2.979,2.979,0,0,0-2.351-.778,3.505,3.505,0,0,0-2.731,1.106,4.319,4.319,0,0,0-1,3.015V53.7Z" transform="translate(-64.398 -24.373)" fill="#fff"/>
    <path id="Caminho_4704750" data-name="Caminho 4704750" d="M139.754,47.749v.07a5.612,5.612,0,0,0,1.091,3.634,3.556,3.556,0,0,0,2.922,1.353,3.727,3.727,0,0,0,2.427-.79,3.314,3.314,0,0,0,1.183-2.16H148.8a4.481,4.481,0,0,1-1.624,3.038,5.344,5.344,0,0,1-3.5,1.141,4.842,4.842,0,0,1-3.944-1.721,7.261,7.261,0,0,1-1.428-4.775,7.454,7.454,0,0,1,1.432-4.86,4.881,4.881,0,0,1,3.987-1.744,4.753,4.753,0,0,1,3.869,1.669,7.092,7.092,0,0,1,1.387,4.665v.48Zm.023-1.159,7.729.011a5.18,5.18,0,0,0-1.109-3.237,3.387,3.387,0,0,0-2.7-1.175,3.511,3.511,0,0,0-2.756,1.195,5.059,5.059,0,0,0-1.167,3.207" transform="translate(-82.339 -24.371)" fill="#fff"/>
    <path id="Caminho_4704751" data-name="Caminho 4704751" d="M170.589,53.284V40.559h3.969V42.3a4.169,4.169,0,0,1,1.548-1.551,5.176,5.176,0,0,1,4.479,0,3.233,3.233,0,0,1,1.364,1.551,4.1,4.1,0,0,1,1.561-1.546,4.572,4.572,0,0,1,2.221-.515,3.955,3.955,0,0,1,3.069,1.135,4.839,4.839,0,0,1,1.04,3.372v8.535H185.8v-7.27a3.674,3.674,0,0,0-.411-2.031,1.6,1.6,0,0,0-1.4-.58,1.627,1.627,0,0,0-1.475.748,4.438,4.438,0,0,0-.475,2.319v6.814h-3.654v-7.27a3.673,3.673,0,0,0-.411-2.031,1.6,1.6,0,0,0-1.4-.58,1.621,1.621,0,0,0-1.473.748,4.4,4.4,0,0,0-.477,2.319v6.814Z" transform="translate(-101.561 -23.958)" fill="#fff"/>
    <path id="Caminho_4704752" data-name="Caminho 4704752" d="M235.76,53.284h-4.212q-.07-.3-.122-.633c-.034-.217-.068-.444-.1-.678a5.892,5.892,0,0,1-1.851,1.3,5.381,5.381,0,0,1-2.152.422,4.01,4.01,0,0,1-2.885-1.012,3.6,3.6,0,0,1-1.06-2.734,3.867,3.867,0,0,1,.828-2.569,4.514,4.514,0,0,1,2.511-1.388q.93-.211,2.356-.456,2.134-.351,2.136-1.03v-.3a.955.955,0,0,0-.412-.836,2.144,2.144,0,0,0-1.225-.287,2.386,2.386,0,0,0-1.4.363,1.588,1.588,0,0,0-.645,1.065h-3.807A4.509,4.509,0,0,1,225.5,41.3a7.078,7.078,0,0,1,4.171-1.053,8.54,8.54,0,0,1,2.837.41,3.858,3.858,0,0,1,1.8,1.241,3.649,3.649,0,0,1,.638,1.423,13.407,13.407,0,0,1,.185,2.651v4.824a4.719,4.719,0,0,0,.157,1.362,1.009,1.009,0,0,0,.47.651Zm-4.547-5.994a5.56,5.56,0,0,1-1.67.562c-.388.078-.683.143-.883.2a2.3,2.3,0,0,0-1.05.537,1.233,1.233,0,0,0-.306.879,1.43,1.43,0,0,0,1.518,1.51,2.443,2.443,0,0,0,1.723-.615,2.084,2.084,0,0,0,.668-1.609Z" transform="translate(-132.991 -23.958)" fill="#fff"/>
    <path id="Caminho_4704753" data-name="Caminho 4704753" d="M259.253,29.854h4.106v3.36h-4.106Zm0,4.519h4.106V47.1h-4.106Z" transform="translate(-154.347 -17.774)" fill="#fff"/>
    <path id="Caminho_4704754" data-name="Caminho 4704754" d="M275.107,49.19h4.131a1.673,1.673,0,0,0,.621,1.264,2.582,2.582,0,0,0,1.595.422,2.394,2.394,0,0,0,1.368-.339,1.051,1.051,0,0,0,.5-.913q0-.737-1.948-1.241-1.044-.269-1.683-.481a8.773,8.773,0,0,1-3.238-1.634,2.971,2.971,0,0,1-.869-2.23A3.6,3.6,0,0,1,277.046,41a6.53,6.53,0,0,1,4.025-1.106,7.89,7.89,0,0,1,4.223.942,3.564,3.564,0,0,1,1.671,2.815H283a1.439,1.439,0,0,0-.581-.954,2.2,2.2,0,0,0-1.254-.31,1.931,1.931,0,0,0-1.141.287.94.94,0,0,0-.4.813q0,.748,2.018,1.3.488.13.755.21,1.88.552,2.61.827a4.429,4.429,0,0,1,1.056.52,3.191,3.191,0,0,1,1.01,1.172,3.517,3.517,0,0,1,.325,1.556,3.8,3.8,0,0,1-1.6,3.244,7.46,7.46,0,0,1-4.468,1.17,7.681,7.681,0,0,1-4.432-1.124,4.054,4.054,0,0,1-1.786-3.173" transform="translate(-163.786 -23.752)" fill="#fff"/>
    <path id="Caminho_4704755" data-name="Caminho 4704755" d="M114.538,85.929a2.477,2.477,0,0,1-.775,1.759,2.626,2.626,0,0,1-1.85.651,2.509,2.509,0,0,1-2.079-.938,4.955,4.955,0,0,1,.016-5.26,2.567,2.567,0,0,1,2.118-.948,2.621,2.621,0,0,1,1.745.593,2.234,2.234,0,0,1,.805,1.551H114.2a2.124,2.124,0,0,0-.739-1.372,2.369,2.369,0,0,0-1.545-.489,2.163,2.163,0,0,0-1.818.889,4.691,4.691,0,0,0-.019,4.821,2.124,2.124,0,0,0,1.792.872,2.4,2.4,0,0,0,1.673-.574,2.158,2.158,0,0,0,.687-1.556Z" transform="translate(-64.945 -48.339)" fill="#fff"/>
    <path id="Caminho_4704756" data-name="Caminho 4704756" d="M125.473,82.4h.3v-.8h-.3Zm0,6.04h.3V83.49h-.3Z" transform="translate(-74.701 -48.579)" fill="#fff"/>
    <path id="Caminho_4704757" data-name="Caminho 4704757" d="M129.484,91.069V86.124h.3v.811a1.56,1.56,0,0,1,.65-.68,2.063,2.063,0,0,1,1-.232,1.671,1.671,0,0,1,1.265.437,1.867,1.867,0,0,1,.418,1.332v3.279h-.305V87.888a1.849,1.849,0,0,0-.322-1.219,1.32,1.32,0,0,0-1.046-.373,2,2,0,0,0-.732.124,1.329,1.329,0,0,0-.53.369,1.4,1.4,0,0,0-.308.574,4.369,4.369,0,0,0-.09,1.059v2.647Z" transform="translate(-77.089 -51.214)" fill="#fff"/>
    <path id="Caminho_4704758" data-name="Caminho 4704758" d="M145.083,89.623a2.017,2.017,0,0,1-.7,1.152,1.964,1.964,0,0,1-1.264.429,1.842,1.842,0,0,1-1.519-.7,3.478,3.478,0,0,1,0-3.789,1.847,1.847,0,0,1,1.519-.695,1.876,1.876,0,0,1,1.51.644,2.675,2.675,0,0,1,.546,1.784v.181h-3.822v.075a2.521,2.521,0,0,0,.489,1.614,1.555,1.555,0,0,0,1.277.613,1.662,1.662,0,0,0,1.053-.351,1.767,1.767,0,0,0,.615-.96Zm-3.721-1.271h3.491a2.3,2.3,0,0,0-.463-1.5,1.5,1.5,0,0,0-1.216-.565,1.608,1.608,0,0,0-1.269.553,2.429,2.429,0,0,0-.542,1.512" transform="translate(-83.968 -51.214)" fill="#fff"/>
    <path id="Caminho_4704759" data-name="Caminho 4704759" d="M153.848,91.069V86.124h.3v.811a1.685,1.685,0,0,1,.625-.68,1.741,1.741,0,0,1,.906-.232,1.629,1.629,0,0,1,.942.258,1.272,1.272,0,0,1,.51.751,1.851,1.851,0,0,1,.653-.754,1.732,1.732,0,0,1,.944-.255,1.462,1.462,0,0,1,1.16.444,1.956,1.956,0,0,1,.388,1.324v3.279h-.3V88.1a6.135,6.135,0,0,0-.033-.738,1.753,1.753,0,0,0-.106-.425.96.96,0,0,0-.423-.47,1.363,1.363,0,0,0-.694-.168,1.635,1.635,0,0,0-.65.128,1.333,1.333,0,0,0-.494.365,1.494,1.494,0,0,0-.283.572,4.526,4.526,0,0,0-.086,1.043v2.665h-.289V88.1a6.154,6.154,0,0,0-.033-.738,1.565,1.565,0,0,0-.111-.425.951.951,0,0,0-.422-.47,1.352,1.352,0,0,0-.69-.168,1.639,1.639,0,0,0-.654.128,1.273,1.273,0,0,0-.489.365,1.47,1.47,0,0,0-.286.572,4.716,4.716,0,0,0-.083,1.043v2.665Z" transform="translate(-91.594 -51.214)" fill="#fff"/>
    <path id="Caminho_4704760" data-name="Caminho 4704760" d="M176.445,91.084l-.139.016a1.051,1.051,0,0,1-.128.011.562.562,0,0,1-.489-.209,1.193,1.193,0,0,1-.152-.684,1.968,1.968,0,0,1-.8.711,2.6,2.6,0,0,1-1.168.252,1.469,1.469,0,0,1-1.057-.384,1.325,1.325,0,0,1-.405-1.008,1.193,1.193,0,0,1,.443-1,3.33,3.33,0,0,1,1.512-.5c.126-.018.3-.038.511-.064.647-.075.969-.243.969-.507V87.3a.922.922,0,0,0-.342-.77,1.558,1.558,0,0,0-.982-.267,1.86,1.86,0,0,0-1.155.321,1.17,1.17,0,0,0-.458.907h-.283a1.4,1.4,0,0,1,.529-1.093,2.084,2.084,0,0,1,1.339-.4,2.4,2.4,0,0,1,.878.145,1.171,1.171,0,0,1,.559.424,1.04,1.04,0,0,1,.159.369,3.072,3.072,0,0,1,.049.654V90a1.618,1.618,0,0,0,.094.69.354.354,0,0,0,.341.166,1.307,1.307,0,0,0,.152-.015l.028,0Zm-.909-2.857q-.115.157-1.033.265l-.231.027a3.588,3.588,0,0,0-1.455.412.916.916,0,0,0-.409.807,1.094,1.094,0,0,0,.324.848,1.307,1.307,0,0,0,.918.3,2.285,2.285,0,0,0,.762-.129,1.974,1.974,0,0,0,.635-.355,1.332,1.332,0,0,0,.38-.541,2.847,2.847,0,0,0,.108-.9Z" transform="translate(-102.461 -51.199)" fill="#fff"/>
    <path id="Caminho_4704761" data-name="Caminho 4704761" d="M194.337,91.084l-.137.016a1.108,1.108,0,0,1-.131.011.561.561,0,0,1-.488-.209,1.181,1.181,0,0,1-.152-.684,1.968,1.968,0,0,1-.8.711,2.6,2.6,0,0,1-1.169.252A1.47,1.47,0,0,1,190.4,90.8a1.323,1.323,0,0,1-.4-1.008,1.193,1.193,0,0,1,.441-1,3.339,3.339,0,0,1,1.513-.5c.127-.018.3-.038.513-.064.644-.075.968-.243.968-.507V87.3a.918.918,0,0,0-.342-.77,1.559,1.559,0,0,0-.981-.267,1.869,1.869,0,0,0-1.156.321,1.17,1.17,0,0,0-.458.907h-.282a1.4,1.4,0,0,1,.528-1.093,2.086,2.086,0,0,1,1.34-.4,2.394,2.394,0,0,1,.878.145,1.189,1.189,0,0,1,.561.424,1.108,1.108,0,0,1,.159.369,3.192,3.192,0,0,1,.048.654V90a1.642,1.642,0,0,0,.093.69.356.356,0,0,0,.34.166,1.321,1.321,0,0,0,.153-.015l.027,0Zm-.908-2.857q-.115.157-1.033.265l-.23.027a3.6,3.6,0,0,0-1.456.412.915.915,0,0,0-.408.807,1.1,1.1,0,0,0,.324.848,1.307,1.307,0,0,0,.917.3,2.292,2.292,0,0,0,.763-.129,1.949,1.949,0,0,0,.634-.355,1.343,1.343,0,0,0,.38-.541,2.806,2.806,0,0,0,.109-.9Z" transform="translate(-113.114 -51.199)" fill="#fff"/>
    <rect id="Retângulo_114919" data-name="Retângulo 114919" width="0.295" height="6.839" transform="translate(82.021 33.017)" fill="#fff"/>
    <path id="Caminho_4704762" data-name="Caminho 4704762" d="M210.147,86.618a2,2,0,0,1-.7,1.152,1.961,1.961,0,0,1-1.263.429,1.847,1.847,0,0,1-1.521-.7,3.487,3.487,0,0,1,0-3.789,1.853,1.853,0,0,1,1.521-.695,1.877,1.877,0,0,1,1.51.644,2.676,2.676,0,0,1,.546,1.785v.181h-3.823V85.7a2.514,2.514,0,0,0,.489,1.614,1.554,1.554,0,0,0,1.277.613,1.657,1.657,0,0,0,1.053-.351,1.768,1.768,0,0,0,.617-.96Zm-3.719-1.271h3.49a2.28,2.28,0,0,0-.465-1.5,1.491,1.491,0,0,0-1.214-.565,1.609,1.609,0,0,0-1.27.553,2.422,2.422,0,0,0-.541,1.511m1.253-2.846.965-1.527h.5L207.976,82.5Z" transform="translate(-122.705 -48.208)" fill="#fff"/>
    <path id="Caminho_4704763" data-name="Caminho 4704763" d="M218.913,91.069V86.124h.305v.811a1.669,1.669,0,0,1,.624-.68,1.743,1.743,0,0,1,.906-.232,1.635,1.635,0,0,1,.943.258,1.28,1.28,0,0,1,.509.751,1.852,1.852,0,0,1,.652-.754,1.738,1.738,0,0,1,.944-.255,1.462,1.462,0,0,1,1.16.444,1.962,1.962,0,0,1,.39,1.324v3.279h-.306V88.1a6.258,6.258,0,0,0-.031-.738,1.79,1.79,0,0,0-.107-.425.962.962,0,0,0-.422-.47,1.364,1.364,0,0,0-.694-.168,1.631,1.631,0,0,0-.651.128,1.309,1.309,0,0,0-.492.365,1.508,1.508,0,0,0-.284.572,4.549,4.549,0,0,0-.086,1.043v2.665h-.289V88.1a6.352,6.352,0,0,0-.032-.738,1.579,1.579,0,0,0-.111-.425.968.968,0,0,0-.422-.47,1.358,1.358,0,0,0-.69-.168,1.644,1.644,0,0,0-.655.128,1.278,1.278,0,0,0-.488.365,1.456,1.456,0,0,0-.287.572,4.734,4.734,0,0,0-.081,1.043v2.665Z" transform="translate(-130.331 -51.214)" fill="#fff"/>
    <path id="Caminho_4704764" data-name="Caminho 4704764" d="M247.809,81.6v6.838h-.29v-1.1a1.861,1.861,0,0,1-.709.919,2.021,2.021,0,0,1-1.146.315,1.957,1.957,0,0,1-1.584-.692,3.4,3.4,0,0,1,0-3.8,1.958,1.958,0,0,1,1.582-.693,2.092,2.092,0,0,1,1.152.312,1.767,1.767,0,0,1,.7.88V81.6Zm-.29,4.382a2.652,2.652,0,0,0-.5-1.706,1.8,1.8,0,0,0-2.714,0,3.144,3.144,0,0,0,0,3.406,1.793,1.793,0,0,0,2.714,0,2.64,2.64,0,0,0,.5-1.7" transform="translate(-144.97 -48.579)" fill="#fff"/>
    <path id="Caminho_4704765" data-name="Caminho 4704765" d="M260.917,91.084l-.138.016a1.061,1.061,0,0,1-.13.011.56.56,0,0,1-.488-.209,1.193,1.193,0,0,1-.152-.684,1.976,1.976,0,0,1-.8.711,2.6,2.6,0,0,1-1.169.252,1.47,1.47,0,0,1-1.058-.384,1.325,1.325,0,0,1-.4-1.008,1.191,1.191,0,0,1,.442-1,3.336,3.336,0,0,1,1.512-.5c.125-.018.3-.038.512-.064.645-.075.969-.243.969-.507V87.3a.918.918,0,0,0-.342-.77,1.56,1.56,0,0,0-.982-.267,1.864,1.864,0,0,0-1.156.321,1.17,1.17,0,0,0-.458.907h-.282a1.4,1.4,0,0,1,.528-1.093,2.09,2.09,0,0,1,1.34-.4,2.4,2.4,0,0,1,.878.145,1.181,1.181,0,0,1,.561.424,1.092,1.092,0,0,1,.159.369,3.176,3.176,0,0,1,.049.654V90a1.639,1.639,0,0,0,.092.69.353.353,0,0,0,.34.166,1.283,1.283,0,0,0,.152-.015l.028,0Zm-.908-2.857q-.115.157-1.034.265l-.229.027a3.588,3.588,0,0,0-1.455.412.916.916,0,0,0-.409.807,1.1,1.1,0,0,0,.324.848,1.307,1.307,0,0,0,.917.3,2.28,2.28,0,0,0,.762-.129,1.981,1.981,0,0,0,.636-.355,1.348,1.348,0,0,0,.38-.541,2.847,2.847,0,0,0,.108-.9Z" transform="translate(-152.753 -51.199)" fill="#fff"/>
    <path id="Caminho_4704766" data-name="Caminho 4704766" d="M275.3,88.131a1.936,1.936,0,0,0,.094.756.353.353,0,0,0,.339.178,1.3,1.3,0,0,0,.2-.016,2.27,2.27,0,0,0,.255-.058v.276c-.1.023-.194.044-.277.057a1.456,1.456,0,0,1-.225.019.621.621,0,0,1-.527-.206,1.147,1.147,0,0,1-.161-.691v-3.9h-.617v-.264H275V82.93h.3v1.354h.89v.264h-.89Z" transform="translate(-163.356 -49.373)" fill="#fff"/>
    <path id="Caminho_4704767" data-name="Caminho 4704767" d="M284.387,89.623a2.019,2.019,0,0,1-.7,1.152,1.965,1.965,0,0,1-1.265.429,1.841,1.841,0,0,1-1.518-.7,3.478,3.478,0,0,1,0-3.789,1.846,1.846,0,0,1,1.518-.695,1.88,1.88,0,0,1,1.511.644,2.673,2.673,0,0,1,.546,1.784v.181h-3.823v.075a2.521,2.521,0,0,0,.489,1.614,1.554,1.554,0,0,0,1.276.613,1.656,1.656,0,0,0,1.053-.351,1.749,1.749,0,0,0,.617-.96Zm-3.721-1.271h3.49a2.294,2.294,0,0,0-.463-1.5,1.5,1.5,0,0,0-1.216-.565,1.611,1.611,0,0,0-1.27.553,2.431,2.431,0,0,0-.541,1.512" transform="translate(-166.904 -51.214)" fill="#fff"/>
    <rect id="Retângulo_114920" data-name="Retângulo 114920" width="0.295" height="6.839" transform="translate(118.65 33.017)" fill="#fff"/>
    <path id="Caminho_4704768" data-name="Caminho 4704768" d="M300.765,91.084l-.14.016a1.058,1.058,0,0,1-.128.011.565.565,0,0,1-.49-.209,1.193,1.193,0,0,1-.152-.684,1.961,1.961,0,0,1-.8.711,2.591,2.591,0,0,1-1.168.252,1.471,1.471,0,0,1-1.057-.384,1.324,1.324,0,0,1-.4-1.008,1.2,1.2,0,0,1,.442-1,3.349,3.349,0,0,1,1.513-.5c.126-.018.3-.038.512-.064.646-.075.968-.243.968-.507V87.3a.919.919,0,0,0-.34-.77,1.561,1.561,0,0,0-.982-.267,1.858,1.858,0,0,0-1.154.321,1.172,1.172,0,0,0-.46.907h-.282a1.405,1.405,0,0,1,.529-1.093,2.084,2.084,0,0,1,1.339-.4,2.4,2.4,0,0,1,.878.145,1.17,1.17,0,0,1,.56.424,1.1,1.1,0,0,1,.161.369,3.189,3.189,0,0,1,.048.654V90a1.627,1.627,0,0,0,.092.69.355.355,0,0,0,.342.166,1.337,1.337,0,0,0,.152-.015l.028,0Zm-.91-2.857q-.115.157-1.032.265l-.231.027a3.583,3.583,0,0,0-1.454.412.915.915,0,0,0-.407.807,1.1,1.1,0,0,0,.322.848,1.3,1.3,0,0,0,.918.3,2.288,2.288,0,0,0,.763-.129,1.954,1.954,0,0,0,.633-.355,1.341,1.341,0,0,0,.382-.541,2.891,2.891,0,0,0,.107-.9Z" transform="translate(-176.476 -51.199)" fill="#fff"/>
    <path id="Caminho_4704769" data-name="Caminho 4704769" d="M25.93,15.486H19.967a1.486,1.486,0,0,0-1.478,1.49v4.8h6.653a1.481,1.481,0,0,1,1.477,1.488v5.633h6.024A1.483,1.483,0,0,0,34.121,27.4V22.623H27.409a1.485,1.485,0,0,1-1.48-1.49Zm2.858,4.892a.157.157,0,0,1-.155.158H27.294a.159.159,0,0,1-.157-.158v-1.1a.157.157,0,0,1,.157-.157h1.338a.155.155,0,0,1,.155.157Zm0-2.625a.155.155,0,0,1-.155.157H27.294a.157.157,0,0,1-.157-.157v-1.1a.158.158,0,0,1,.157-.158h1.338a.156.156,0,0,1,.155.158Zm-7.44,3.673a.156.156,0,0,1-.155.158H19.854a.157.157,0,0,1-.156-.158v-1.1a.157.157,0,0,1,.156-.157h1.339a.156.156,0,0,1,.155.157Zm0-2.594a.156.156,0,0,1-.155.157H19.854a.157.157,0,0,1-.156-.157v-1.1a.156.156,0,0,1,.156-.157h1.339a.155.155,0,0,1,.155.157Z" transform="translate(-11.008 -9.22)" fill="#fff"/>
    <path id="Caminho_4704770" data-name="Caminho 4704770" d="M8.847,36.045a.157.157,0,0,1-.157-.157v-1.1a.157.157,0,0,1,.157-.157h1.34a.157.157,0,0,1,.155.157v1.1a.156.156,0,0,1-.155.157ZM7.483,31.007h-6A1.484,1.484,0,0,0,0,32.5V42.921a1.487,1.487,0,0,0,1.48,1.492H14.155a1.484,1.484,0,0,0,1.477-1.492V32.5a1.483,1.483,0,0,0-1.29-1.476A1.483,1.483,0,0,1,15.631,32.5v5.637H8.96a1.486,1.486,0,0,1-1.477-1.492Zm1.364,2.412a.158.158,0,0,1-.157-.159v-1.1A.157.157,0,0,1,8.847,32h1.34a.156.156,0,0,1,.155.157v1.1a.158.158,0,0,1-.155.159ZM2.86,42.167a.156.156,0,0,1-.156.157H1.365a.157.157,0,0,1-.157-.157v-1.1a.158.158,0,0,1,.157-.159H2.7a.157.157,0,0,1,.156.159Zm0-2.626A.157.157,0,0,1,2.7,39.7H1.365a.158.158,0,0,1-.157-.157v-1.1a.157.157,0,0,1,.157-.157H2.7a.156.156,0,0,1,.156.157Zm0-2.595A.157.157,0,0,1,2.7,37.1H1.365a.158.158,0,0,1-.157-.159v-1.1a.158.158,0,0,1,.157-.158H2.7a.157.157,0,0,1,.156.158Zm0-2.593a.156.156,0,0,1-.156.156H1.365a.157.157,0,0,1-.157-.156v-1.1a.158.158,0,0,1,.157-.159H2.7a.157.157,0,0,1,.156.159Z" transform="translate(0 -18.46)" fill="#fff"/>
    <path id="Caminho_4704771" data-name="Caminho 4704771" d="M38.355,0a1.483,1.483,0,0,0-1.424,1.487V6.4l6.722.092c.818,0,1.092.566,1.092,1.389l.194,5.521h6.145a1.482,1.482,0,0,0,1.477-1.49V1.487A1.482,1.482,0,0,0,51.138,0Zm1.434,5.939a.155.155,0,0,1-.156.157H38.295a.155.155,0,0,1-.156-.157v-1.1a.157.157,0,0,1,.156-.159h1.338a.157.157,0,0,1,.156.159Zm0-2.594a.155.155,0,0,1-.156.156H38.295a.155.155,0,0,1-.156-.156v-1.1a.156.156,0,0,1,.156-.158h1.338a.156.156,0,0,1,.156.158Z" transform="translate(-21.987 0)" fill="#fff"/>
  </g>
</svg>
