<svg width="32" height="32" viewBox="0 0 32 32" fill="none" xmlns="http://www.w3.org/2000/svg">
<path d="M16 0C24.8366 0 32 7.16344 32 16C32 24.8366 24.8366 32 16 32C7.16344 32 0 24.8366 0 16C0 7.16344 7.16344 0 16 0ZM16.75 12.7012C16.2859 12.4333 15.7141 12.4332 15.25 12.7012L7.25 17.3193C6.53262 17.7336 6.28702 18.6517 6.70117 19.3691C7.11546 20.0863 8.0327 20.332 8.75 19.918L16 15.7314L23.25 19.918C23.9673 20.332 24.8845 20.0863 25.2988 19.3691C25.713 18.6517 25.4674 17.7335 24.75 17.3193L16.75 12.7012Z" fill="#04010B"/>
</svg>
